<svg xmlns="http://www.w3.org/2000/svg" viewBox="0 0 477.16 477.16"><defs><style>.cls-1{fill:#feda00;}.cls-1,.cls-10,.cls-11,.cls-12,.cls-2,.cls-3,.cls-4,.cls-5,.cls-6,.cls-7,.cls-9{fill-rule:evenodd;}.cls-2{fill:#305275;}.cls-3{fill:#fec901;}.cls-4{fill:#fed434;}.cls-5{fill:#c48d55;}.cls-6{fill:#4c81a9;}.cls-7{fill:#fff;}.cls-8{fill:none;stroke:#fff;stroke-linecap:round;stroke-linejoin:round;stroke-width:6.11px;}.cls-9{fill:red;}.cls-10{fill:#83c4b0;}.cls-11{fill:#97663b;}</style></defs><g id="Capa_2" data-name="Capa 2"><g id="Capa_1-2" data-name="Capa 1"><path class="cls-1" d="M238.58,0C370.34,0,477.16,106.81,477.16,238.58S370.34,477.16,238.58,477.16,0,370.34,0,238.58,106.82,0,238.58,0"/><path class="cls-2" d="M238.58,8.15C365.84,8.15,469,111.32,469,238.58S365.84,469,238.58,469,8.15,365.84,8.15,238.58,111.32,8.15,238.58,8.15"/><path class="cls-3" d="M325.11,302.37h0a86.62,86.62,0,0,1-3.93,25.85H156q-.89-2.85-1.59-5.78l-.67-20.13c27.35-2.45,56-3.75,85.43-3.75,29.66,0,58.45,1.32,86,3.8M181.75,237.14c1.22-1.06,2.46-2.09,3.74-3.08l27.71,37a100.8,100.8,0,0,1-15-7Zm-4.42,4.13c1-1.05,2.11-2.06,3.2-3.05l15,24.31A129.69,129.69,0,0,1,184,254.74Zm-4.15,4.47q1.42-1.65,2.93-3.22l5,10C178.32,250.26,175.67,248,173.18,245.74Zm-5.27,6.71c1-1.43,2.07-2.83,3.17-4.19L177,263.58Zm-3.76,5.79c.59-1,1.2-2,1.82-2.93l2.75,9.81Zm-4.5,19-4,.34c.49-1.63,1-3.23,1.6-4.82Zm1.84-.15-.51,0-3.14-5.89q.89-2.28,1.88-4.48Zm4.56-.35-2.94.23-1.38-8.34Zm5.81-.42-4.48.32-6.27-11.78-.12-.77q1.19-2.4,2.51-4.72l6.23,9.38Zm2.78-.19-1.17.08-.86-3.13Zm7-.43L176,276l-4.33-6.51-4.41-16.07,0-.07,10.94,13.43Zm3.64-.21-2,.11-1.84-4.87Zm7.17-.37c-1.95.1-3.9.19-5.84.3l-6.41-7.87-7.29-19.25c3.39,3.11,6.91,6.07,10.53,8.84Zm10.51-.43c-3,.1-5.94.23-8.89.36l-7.84-15.83a124.88,124.88,0,0,0,12,7.73Zm11.4-.35q-4.9.12-9.78.29l-3.83-6.28A98.29,98.29,0,0,0,214.35,274.32Zm14.67-.25-5.15.06a78.15,78.15,0,0,1-8.49-2.32l-28.87-38.54.2-.14a174.23,174.23,0,0,0,19.45,17.27C211.69,256.63,223.43,268.47,229,274.07Zm24.21.06q-7.29-.11-14.65-.11c-2.52,0-5,0-7.54,0-6.46-5.29-15.53-15.07-20.25-20.3,15.64,10.83,32.3,17.44,49.8,18-1.76.7-3.53,1.35-5.3,1.93C254.6,273.81,253.92,274,253.23,274.13Zm32.2,1q-12.44-.6-25.12-.88,2.79-1.22,5.51-2.56A80.45,80.45,0,0,0,292.13,266C289.67,269.38,287.39,272.48,285.43,275.14Zm12.45.68q-4.68-.29-9.39-.53a149.19,149.19,0,0,0,14.77-9.05C301.08,270.19,299.28,273.37,297.88,275.82Zm21.32-4.91c.41,1,.8,2.1,1.17,3.17l-.83,3.31-5.09-.41C316,275,317.61,273,319.2,270.91Zm-3.49-7.77c1,2,2,4.11,2.87,6.23q-3,3.78-6,7.46l-2.06-.15C311.89,273.12,313.68,268.45,315.71,263.14Zm-2.41-4.4c.44.74.87,1.5,1.28,2.26-2.49,6.27-4.61,11.64-6.15,15.52q-4.21-.3-8.47-.57c1.66-3,3.87-7,6.58-12Q310,261.42,313.3,258.74Zm-1.76-2.88c.38.59.76,1.2,1.12,1.8-1.55,1.26-3.14,2.49-4.75,3.7l2.58-4.82Zm-5.16-7.24q2,2.49,3.75,5.11L309,255.89a99.62,99.62,0,0,1-12.23,6.47C299.85,257.94,303.17,253.24,306.38,248.62Zm-3-3.6c.73.82,1.44,1.66,2.14,2.52-3.82,5.37-7.82,10.89-11.53,16a80.31,80.31,0,0,1-23.19,5.6A165.18,165.18,0,0,0,303.36,245Zm-64.78-29.17A86.28,86.28,0,0,1,302.44,244c-11.15,10.35-23.5,19.32-36.39,25.35-26.71.59-53-13-77.55-37.53A86.11,86.11,0,0,1,238.58,215.85ZM146.07,303c-22.62,2.23-44.31,5.24-64.86,9L144,325.53l-3.85,2.7h6.42Zm233.25,12.55,17.17-3.71q-8.62-1.55-17.49-2.93Q379.15,312.27,379.32,315.58Zm-49.78-12.81a91.07,91.07,0,0,1-3.73,25.46h13.36l-4.44-3,11.93-2.57v-1h3.06V322l21.86-4.72-.27-9.46C357.79,305.81,343.84,304.13,329.54,302.77Zm14.2-53.19-.33,15.86q-1,2.07-1.93,4.11l.51-16.72C342.58,251.75,343.16,250.66,343.74,249.58Zm-36.13,8.75a102.21,102.21,0,0,1-12.69,6.55c-2.2,3.1-4.28,6-6.13,8.58a139.34,139.34,0,0,0,15.85-9.72Zm14.51-11.87q3.48-2.85,7-6.07c3.49-12.88,7.25-25.95,10.38-34.95.23-1,.46-2,.68-3l.08-2.2C336.24,210,328.84,229,322.12,246.46Zm-171.33-32,1.5,8.77L151,221.62Zm11.31,20.26-9.39-34.23,15.65,40.67C166.1,239,164,236.8,162.1,234.74Zm-7.34-8.41-4.4-26.71,9,32.1C157.64,229.78,156.1,228,154.76,226.33Zm-.3,9.59-3.08-3.77-.26-8q.84,1.14,1.71,2.25Zm9.27,11.39-6.91-8.48-1.54-9.35c1.66,2.05,3.38,4.09,5.16,6.09Zm-7.49-1-4.62-6.94-.18-5.47,3.39,4.16Zm19-9.25q1.43-1.38,2.91-2.7l-21.81-35.46ZM170.53,242q1.68-1.91,3.48-3.71l-20-39.81Zm-4.81,5.9q1.41-1.89,2.92-3.71c-1.88-1.84-3.71-3.73-5.49-5.65Zm-4.28,6.23q1.4-2.24,2.92-4.37L157.18,241l1.48,9Zm-1.64,2.73c.32-.55.64-1.1,1-1.64l-1.65-2.49Zm-7.08,15.39q.84-2.38,1.8-4.71l-2.09-3.91Zm-35.68-10,1.74,1.19.47-17.36c-.59,1.32-1.18,2.65-1.78,4Zm-4-2.7.36.25,0-1.1Zm-7-4.8.58.4.24-1.8Zm-7.31-5,2.74,1.87c.55-2.38,1.11-4.81,1.68-7.26Q101,247.09,98.74,249.75Zm-12.18-10-1.8-.31-.38.49,1.49,1Zm5.83,1L87.8,240l-.93,1.66,3.93,2.68Zm5,.88L93.84,241,92,245.17l3.37,2.3Zm5.41,1-3.87-.68-2.12,6.48.86.59C99.42,246.89,101.13,244.75,102.79,242.62Zm5.35.94-3-.53c-.73,3.26-1.44,6.49-2.13,9.62l2.12,1.45c.71-1.2,1.41-2.4,2.11-3.6C107.53,248.22,107.83,245.9,108.14,243.56Zm2.8.49-1.15-.2c-.12.94-.24,1.89-.35,2.83Zm3.11.55-2-.36q-1.45,2.59-2.92,5.17-.42,3.51-.81,6.86l3.74,2.55c.53-1.08,1-2.17,1.57-3.26Zm4.3.75-.71-.12-.07,1.84Zm7,1.22-1.43-.25,0,4.42Q124.58,248.65,125.3,246.57Zm8.31,1.46-7.16-1.26q-1.31,3.85-2.65,7.66l-.12,12.34,4.39,3C130.05,262.69,131.92,255.42,133.61,248Zm11.46,2-10.29-1.81c-1.62,7.48-3.42,14.94-5.35,22.45l12,8.21,4.14-.42Zm7.49,1.31-.54-.09.32,9.61,2.79,5.25q1.17-2.67,2.49-5.25Zm-.7-4.87,3.46,5.36-1.24-.22,4.23,7.94.14-.27-1.73-10.16-5-7.55Zm-24.4-37.83,1,1.57c3.11-6.68,6-13.38,8.6-20.06C134.18,196.36,131,202.55,127.46,208.66ZM116,190.88l.23.36,0-1.15Zm10-11.77L95.82,159.62l18.62,28.86c.71-1.41,1.39-2.81,2.06-4.19l.16-4.06,3.36-2.11-.11,3C121.46,180.58,123.64,179.87,126,179.11Zm11.11,7.16-1.35-.87c-2.9.65-6.47,1.45-9.84,2.23a10,10,0,0,0-6.43,4.59l-.14,3.92,1.17,1.82c0-.82,0-1.66.07-2.52l0-.78,3.71-.18c0,2.69-.06,5.94-.1,9.2L126.4,207C131,199,134.55,191.86,137.14,186.27Zm2.22,1.44-.11-.08c-3,7.82-6.42,15.71-10.13,23.61l1.93,3C134.24,205.41,137.05,196.53,139.36,187.71Zm4.59,3-1.33-.86a317.07,317.07,0,0,1-3.72,36.59l-.77-1.19a289.06,289.06,0,0,0,3.79-35.85l-.37-.24a309.1,309.1,0,0,1-6.83,30.8l-.79-1.22a293.26,293.26,0,0,0,6.53-30.28l-.07,0c-2.4,8.93-5.33,18-8.62,27l1.2,1.87c4-1,7.7-2.16,8.84-2.45l-.12,15.08a6.51,6.51,0,0,0-1.58-1.56l4.68,7.26Zm16.41,10.59-.77-.51,19.82,32.55q1.67-1.44,3.42-2.79l-6.9-9.22C170.56,215,165.37,208.28,160.36,201.26ZM343,219l13-20.16-6.08.44a8.64,8.64,0,0,0-6.43,3.22Zm-6.33,9.81,2.65-4.12.56-15.29C338.82,215.12,337.73,221.83,336.69,228.84Zm-4.92,7.62,2.92-4.52c.86-5.47,1.76-10.81,2.65-15.72C335.52,222.42,333.62,229.4,331.77,236.46Zm-6.26,9.71,1.2-1.87c-1.85,1.61-3.69,3.13-5.53,4.58l-.83,2.18C322.12,249.45,323.84,247.81,325.51,246.17Zm6.66,2.57-3.72.7c-.92,3.63-1.79,7.16-2.6,10.48q3-3.93,5.86-8C331.86,250.9,332,249.82,332.17,248.74Zm2.11-.4-.32.06-.07.5Zm4.23-.8-2.71.51c-.73,1.07-1.47,2.14-2.22,3.2-.81,6.27-1.54,12.17-2.14,17.17q3.42-5.52,6.72-11.23Zm5.29-1-1.63.31-.1,3.41c.58-1.06,1.15-2.12,1.72-3.18Zm8.35-1.57-3.76.71v8.56Q350.33,249.65,352.15,245Zm39.6-6.79.87-.6-.13-.22-1,.19Zm-3.18,2.23,2-1.41-.54-1.18-2.25.42ZM384.89,243l2.45-1.72-1-2.76-2.47.47Zm-4.19,2.94,2.89-2-1.17-4.65-2.66.5Zm-4.1,2.88,2.71-1.91-1-6.86-1.91.36Zm-19.15,13.42,12.82-9-.14-11.66-7.9,1.49C360.82,249.53,359.2,255.91,357.45,262.23Zm-9.14,6.41,7.19-5c1.89-6.56,3.64-13.34,5.14-20.23l-7.18,1.35c-1.62,4.29-3.32,8.55-5.07,12.75Zm-6.94,4.86,1.87-1.31.1-3.05C342.68,270.6,342,272.06,341.37,273.5Zm-11.1,4.86,3.66.36,3.54-2.48.59-16.34c-2.32,4.1-4.68,8.16-7.05,12.14C330.72,274.48,330.47,276.61,330.27,278.36Zm-2.89-.28.81.08.23-1.81C328.08,276.93,327.73,277.51,327.38,278.08Zm-3.89-8.38c.93,2.4,1.75,4.86,2.48,7.37,1-1.53,2-3.07,3-4.63.64-4.93,1.48-11.2,2.43-18.05q-3.11,4.38-6.28,8.68C324.51,265.42,324,267.64,323.49,269.7Zm-5.68-12c1.41,2.49,2.71,5.07,3.88,7.7l1.29-1.66c1.08-4.27,2.3-9,3.6-13.91l-3.67.69q-1.77,1.62-3.57,3.19Zm-2.6-4.31c.31.47.61.95.9,1.43.48-.4.95-.81,1.42-1.22l1.06-2.68C317.46,251.74,316.34,252.56,315.21,253.36Zm-1.68-2.54,1,1.43q2.52-1.75,5-3.71c6.25-15.74,13.24-33.18,17.79-44.1-.54.83-1.09,1.67-1.67,2.53C331.4,216.66,322.08,234.68,313.53,250.82Zm-4.52-6q1.82,2.22,3.5,4.56c7.12-13.11,14.67-27.28,19.46-37.11-2.94,4.12-6.29,8.49-10,13C319.07,230,314.3,237.15,309,244.82ZM306.56,242c.54.61,1.08,1.22,1.6,1.85,3.29-4.65,6.36-9.08,8.9-12.86C313.79,234.61,310.29,238.31,306.56,242Zm-68-30.54a90.74,90.74,0,0,1,67.08,29.53,213.06,213.06,0,0,0,34.76-44.28l.13-3.53,3.35-1.43-.08,2.63c3.82-.72,12-2.52,17.56-3.77l20-30.94-92.24,59.5,12.66-72.05-40.38,59.17L238.58,100.48,215.44,207.77l-42-59.89,13.28,70.38-21.72-14a252.61,252.61,0,0,0,20.35,24.35A90.51,90.51,0,0,1,238.58,211.41Z"/><path class="cls-4" d="M181.8,300.24a81.51,81.51,0,0,0-4.23,26c0,.67,0,1.33,0,2H160.86a81.7,81.7,0,0,1-4.37-26.16Q169,301,181.8,300.24m-2.49-55q1.68-1.75,3.47-3.39l12.71,20.66A129.69,129.69,0,0,1,184,254.74Zm-3,3.27c.58-.68,1.18-1.35,1.79-2l3,6C179.46,251.18,177.87,249.85,176.33,248.53Zm-5.65,7.32c.7-1,1.42-2,2.16-3L177,263.58Zm-3.91,6.33c.25-.45.5-.89.76-1.33l1.19,4.27Zm-5.28,14.89-.51,0-.42-.78c.18-.52.35-1,.54-1.56Zm4.56-.35-2.94.22-.87-5.24c.16-.4.33-.81.5-1.21Zm5.81-.42-4.48.32-4-7.57q1.29-2.93,2.79-5.73l3.59,5.41Zm2.78-.19-1.17.08-.86-3.13Zm7-.43L176,276l-4.33-6.51-2.92-10.64c.43-.7.88-1.4,1.34-2.09l8.15,10Zm3.64-.21-2,.11-1.84-4.87Zm7.17-.36-5.84.29-6.41-7.87L174,251.29c.31-.38.61-.77.93-1.15,2.74,2.44,5.57,4.77,8.46,7Zm7.64-5.12c-1.52,1.6-3,3.25-4.37,5l-1.65.07-7.84-15.83a124.88,124.88,0,0,0,12,7.73Zm1.3-1.33-.27.27-.37-.6Zm6-5.42q-2.09,1.71-4.06,3.56c-1.73-.86-3.44-1.77-5.12-2.71L184,240.79q2-1.74,4-3.36Zm6.37-4.75q-2.76,1.86-5.36,3.93L189,236.64l.68-.5a169.84,169.84,0,0,0,16.44,14.26C208.09,252.58,210.79,255.45,213.71,258.49Zm2.16-1.39c-.43.26-.86.53-1.28.81-1.44-1.55-2.73-3-3.8-4.16C212.47,254.92,214.16,256,215.87,257.1Zm92.48,3.44a3.79,3.79,0,0,0,.2.34l-.34.26-.13-.1Zm-1.18-1.94.16.26-.64,1.16c-.29-.21-.58-.42-.88-.62Zm-3.85-5.6c1.08,1.43,2.11,2.91,3.09,4.41l-1.91,1.09c-1.14-.77-2.3-1.51-3.49-2.22Zm-3.69-4.58c1,1.11,1.9,2.25,2.8,3.41l-2.67,3.71q-2.56-1.47-5.22-2.76C296.27,251.35,298,249.89,299.63,248.42ZM238,220.29a81.34,81.34,0,0,1,60.68,27.08q-2.77,2.43-5.61,4.73a81.65,81.65,0,0,0-74.76,3.5,151.25,151.25,0,0,1-26.78-20.78A81.18,81.18,0,0,1,238,220.29Z"/><path class="cls-5" d="M412.2,351.61c-32-.79-60.53.5-50,6.43,16.55,9-15.87,11.31-58.11,10.62-54.15,1.19-9.53,32.31-136.61,27.08a148.91,148.91,0,0,0-52.4,10A208.17,208.17,0,0,0,412.2,351.61"/><path class="cls-6" d="M383.19,334.15s39.5-1,32.76,1-36.13,0-32.76-1m-214.35,2.41s158,4.34,148.36,5.78S160.16,339,168.84,336.56ZM68.64,347.64h52c43.35,0,52,1,52,1S83.57,354.39,68.64,347.64ZM98,361.13s54.43-.48,49.13.48S97.06,364.5,98,361.13ZM49.19,325.62H426.68a205.6,205.6,0,0,1-12,22.11c-36.32-.84-75.11,1.95-62.53,9.06,15.92,9-23.39,7.55-65.63,6.86C232.37,364.83,277,396,149.91,390.73A150.43,150.43,0,0,0,105.12,398,208.91,208.91,0,0,1,49.19,325.62Z"/><path class="cls-7" d="M238.58,30c115.18,0,208.55,93.37,208.55,208.55S353.76,447.13,238.58,447.13,30,353.76,30,238.58,123.4,30,238.58,30m0-6.87c119,0,215.43,96.44,215.43,215.42S357.56,454,238.58,454,23.16,357.56,23.16,238.58,119.61,23.16,238.58,23.16Z"/><path class="cls-8" d="M81.23,130.6c2.44-4.37,6-4.82,9-2.66,3.66,2.61,3.28,6.59.86,9.71ZM111.88,96a2.51,2.51,0,0,0,.05-3.63,3.28,3.28,0,0,0-2.2-1L98.07,102.46a3,3,0,0,0,.9,2.28,2.51,2.51,0,0,0,3.63.12l17.8,18.68a2.51,2.51,0,0,0-.05,3.63,3.09,3.09,0,0,0,2.24,1l11.66-11.12a3.28,3.28,0,0,0-.94-2.24,2.51,2.51,0,0,0-3.63-.13Zm35.65,5.72L133.32,79.56a8.61,8.61,0,0,1,1-.79c4-2.54,8.44-1.36,13.73,6.88,4.67,7.28,4.28,13-.14,15.82Zm-10.93,6.69a2.51,2.51,0,0,0-.74,3.55,3,3,0,0,0,2,1.42c1.92-1.1,6.31-3.79,14.68-9.16,9.43-6,13.5-15.52,6.73-26.09-6.39-10-16.71-10.23-26.77-3.78-7.74,5-12.33,8-13.82,9.12a3,3,0,0,0,.45,2.4,2.52,2.52,0,0,0,3.54.82Zm47.6-25.37-3.73-11L183.7,71a3.33,3.33,0,0,1,3.51.41,2.29,2.29,0,0,0,2.22.34,1.7,1.7,0,0,0,1.12-2.27c-.36-1.07-2.49-3.32-3.56-4.44s-1.87-1.31-2.48-1.1c-1.49.5-1.36,1.71-1.53,2.23l-4,1.37-3-8.92,4.36-1.47c1.95-.66,3.23.27,4.33,1,1.56,1.07,2.37,1.59,3.44,1.23a1.73,1.73,0,0,0,1.29-2.26,8.68,8.68,0,0,0-1.6-2.37L186.42,53c-1.18-1.49-2.54-3.48-4.39-2.86-1,.35-1.46,1.24-2,1.94l-19.32,6.54a3.08,3.08,0,0,0-.14,2.45,2.52,2.52,0,0,0,3.24,1.64l8.27,24.44a2.52,2.52,0,0,0-1.58,3.27,3.08,3.08,0,0,0,1.6,1.86l19.78-6.69a4.49,4.49,0,0,0,2.79.31c1-.35,1.43-1.17,1.66-2.5.4-2.37.8-5.41.23-7.1A1.92,1.92,0,0,0,194,74.94c-.88.3-1.44,1-2.11,2.89a5,5,0,0,1-3.61,3.84ZM229.66,74l-1.95-25.73a2.57,2.57,0,0,0,2.44-2.79,3.31,3.31,0,0,0-1-2.2l-16.18,1.23a3.05,3.05,0,0,0-.74,2.34,2.51,2.51,0,0,0,2.73,2.39l1.95,25.73a2.52,2.52,0,0,0-2.34,2.78,3.1,3.1,0,0,0,1.09,2.19l19.2-1.46a4.46,4.46,0,0,0,2.63,1c1.18-.09,1.67-.83,2.32-2.24,1-2.14,2.19-6.24,2.05-8a1.78,1.78,0,0,0-2.09-1.85,2.39,2.39,0,0,0-1.91,1.29c-1.61,2.4-2.72,4.92-5.47,5.13Zm34.91-7-7.3-.92,5-9.12h.06Zm7.87-21.19-13.36-1.7a3.1,3.1,0,0,0-1.2,2.14,2.6,2.6,0,0,0,2.2,2.9l.7.09-11,19.27c-1.75,3.05-2.57,4.36-3,5l-.54-.06c-2.09-.27-3.25.67-3.46,2.34a3,3,0,0,0,.65,2.21l10.62,1.35a3.35,3.35,0,0,0,1.14-2.15c.2-1.5-.65-2.59-2.46-2.93.16-.41.51-1,.93-1.73l1-1.79,11,1.4.86,3.93a2.6,2.6,0,0,0-2.73,2.21,3.32,3.32,0,0,0,.57,2.36L282,82.83a3.29,3.29,0,0,0,1.15-2.14,2.6,2.6,0,0,0-2.31-2.91ZM318.33,62.1c-.43-3.62-.82-4.33-1.89-4.69a4.74,4.74,0,0,0-3.05.4L296.53,52.1a4.75,4.75,0,0,0-2.18-2.16c-1.07-.37-1.81,0-4.35,2.58l-2.27,2.31a3.66,3.66,0,0,0-1.22,1.93,2.14,2.14,0,0,0,1.63,2.44c1.33.45,2.2-.11,3.61-1.06,1.63-1.11,2.68-1.84,4.52-1.22l1.13.39-8.24,24.33a2.52,2.52,0,0,0-3.24,1.65,3.3,3.3,0,0,0,.1,2.43l15.32,5.18A3.36,3.36,0,0,0,302.88,89a2.48,2.48,0,0,0-1.57-3.27l8.23-24.34,1.13.39c1.84.62,2.23,1.84,2.86,3.7.54,1.61.89,2.59,2.22,3a2.15,2.15,0,0,0,2.78-.94,3.77,3.77,0,0,0,.2-2.28ZM339,76.53a2.51,2.51,0,0,0,3.49-1,3.3,3.3,0,0,0,.39-2.4l-14-8a3.12,3.12,0,0,0-1.93,1.51,2.52,2.52,0,0,0,.91,3.52L315,92.5a2.51,2.51,0,0,0-3.49,1,3.06,3.06,0,0,0-.34,2.43l14,8a3.37,3.37,0,0,0,1.89-1.54,2.52,2.52,0,0,0-.91-3.52ZM371.89,95.6a3.4,3.4,0,0,0-2.14,1.15c-1,1.19-.84,2.71.55,3.91l.25.22c-1.2,1.54-3.17,4-6.85,8.23l-2.3,2.66-.09-.07,1.1-24.31-9.49-8.22a3.1,3.1,0,0,0-2.18,1.12c-1,1.18-.75,2.35.06,3.48l.13.19-8.54,9.85c-5.06,5.84-7.48,8.47-8.44,9.5a2.49,2.49,0,0,0-3.5.4,3.07,3.07,0,0,0-.79,2.32l7.19,6.23a3.26,3.26,0,0,0,2.14-1.15c1-1.18.85-2.7-.54-3.91l-.45-.39c1.19-1.54,3.23-4.06,6.81-8.19l3-3.43.09.07-1,25.68,7.48,6.48L366,113.93c4.25-4.91,7.52-8.44,8.59-9.51a2.45,2.45,0,0,0,3.42-.48,3.28,3.28,0,0,0,.83-2.28Zm.36,47.74c-1.85-2.6.08-6.23,8.06-11.9,7.45-5.3,12.4-6.56,14.25-4s-.91,7-8.35,12.24S374.16,146,372.25,143.34Zm-4.36,3.1c5,7.1,16,12.4,26.82,4.69s8.8-19.46,3.81-26.47c-4.82-6.79-15.95-12.35-26.7-4.7S363,139.52,367.89,146.44ZM101.28,129.93c1.38-4.93.53-10-2.87-12.4-8.64-6.14-15.67,2.73-19.81,8.55-5.45,7.67-8.47,12.09-9.45,13.65a3.09,3.09,0,0,0,1.32,2.07,2.51,2.51,0,0,0,3.59-.57l21,15a2.51,2.51,0,0,0,.64,3.58,3.08,3.08,0,0,0,2.38.57l9.34-13.14a3.32,3.32,0,0,0-1.35-2,2.51,2.51,0,0,0-3.58.57l-7.85-5.58a4,4,0,0,1,2.42-1.53c4.58-1.32,12.52,6.38,18.6-2.17,3.63-5.12,2.61-9.1.72-10.44a1.49,1.49,0,0,0-2.22.21c-.53.75-.56,1.26-1,1.88-1.53,2.16-5.45-2-11.6,2Z"/><path class="cls-9" d="M81.23,130.6c2.44-4.37,6-4.82,9-2.66,3.66,2.6,3.28,6.59.86,9.71ZM111.88,96a2.53,2.53,0,0,0,.05-3.64,3.31,3.31,0,0,0-2.2-1L98.07,102.46a3.06,3.06,0,0,0,.9,2.28,2.51,2.51,0,0,0,3.63.12l17.8,18.68a2.51,2.51,0,0,0,0,3.63,3.06,3.06,0,0,0,2.23,1l11.66-11.12a3.32,3.32,0,0,0-.94-2.25,2.52,2.52,0,0,0-3.63-.12Zm35.65,5.72L133.32,79.56a8.61,8.61,0,0,1,1-.79c4-2.54,8.44-1.37,13.73,6.88,4.67,7.28,4.28,13-.14,15.82Zm-10.93,6.69a2.51,2.51,0,0,0-.74,3.55,3,3,0,0,0,2,1.42c1.92-1.11,6.31-3.79,14.69-9.16,9.42-6,13.49-15.53,6.72-26.09-6.39-10-16.71-10.23-26.77-3.78-7.74,5-12.33,8-13.82,9.11a3.1,3.1,0,0,0,.45,2.41,2.52,2.52,0,0,0,3.54.82Zm47.6-25.37-3.73-11L183.7,71a3.33,3.33,0,0,1,3.51.41,2.29,2.29,0,0,0,2.22.33,1.69,1.69,0,0,0,1.12-2.26c-.36-1.07-2.49-3.32-3.56-4.45s-1.87-1.31-2.48-1.1c-1.49.51-1.36,1.72-1.53,2.23l-4,1.37-3-8.91,4.36-1.48c1.95-.65,3.23.28,4.33,1,1.56,1.07,2.37,1.6,3.44,1.24a1.74,1.74,0,0,0,1.29-2.27,9,9,0,0,0-1.6-2.37L186.43,53c-1.19-1.48-2.55-3.47-4.4-2.85-1,.35-1.46,1.24-2,1.94l-19.32,6.54a3.06,3.06,0,0,0-.14,2.44,2.52,2.52,0,0,0,3.24,1.65l8.27,24.44a2.52,2.52,0,0,0-1.58,3.27,3.08,3.08,0,0,0,1.6,1.86l19.78-6.69a4.49,4.49,0,0,0,2.79.31c1-.35,1.43-1.17,1.66-2.51.4-2.36.8-5.4.23-7.1A1.92,1.92,0,0,0,194,74.94c-.87.29-1.44,1-2.11,2.88a5,5,0,0,1-3.61,3.85ZM229.67,74l-2-25.72a2.59,2.59,0,0,0,2.45-2.79,3.31,3.31,0,0,0-1-2.2l-16.18,1.23a3.08,3.08,0,0,0-.74,2.33,2.52,2.52,0,0,0,2.73,2.4l1.95,25.73a2.51,2.51,0,0,0-2.33,2.78,3.07,3.07,0,0,0,1.09,2.19l19.19-1.46a4.52,4.52,0,0,0,2.63,1c1.19-.09,1.67-.84,2.32-2.24,1-2.14,2.19-6.24,2.05-8a1.77,1.77,0,0,0-2.09-1.85,2.39,2.39,0,0,0-1.91,1.28c-1.61,2.4-2.72,4.93-5.47,5.14Zm34.9-7-7.3-.93,5-9.12h.06Zm7.87-21.19-13.36-1.7a3.1,3.1,0,0,0-1.19,2.14,2.58,2.58,0,0,0,2.19,2.9l.7.08-11,19.28c-1.75,3.05-2.57,4.36-3,5l-.54-.07c-2.09-.26-3.25.68-3.46,2.34a3,3,0,0,0,.65,2.21l10.62,1.35a3.29,3.29,0,0,0,1.15-2.14c.19-1.5-.66-2.59-2.47-2.93.17-.42.51-1,.93-1.74l1-1.78,11,1.4.87,3.92a2.61,2.61,0,0,0-2.74,2.22,3.32,3.32,0,0,0,.57,2.36L282,82.83a3.35,3.35,0,0,0,1.15-2.15,2.61,2.61,0,0,0-2.3-2.91ZM318.33,62.1c-.43-3.63-.82-4.33-1.89-4.69a4.8,4.8,0,0,0-3.05.39l-16.85-5.7a4.79,4.79,0,0,0-2.18-2.16c-1.08-.37-1.82,0-4.36,2.58l-2.27,2.31a3.62,3.62,0,0,0-1.22,1.93,2.13,2.13,0,0,0,1.63,2.43c1.33.46,2.21-.11,3.61-1.06,1.63-1.1,2.68-1.83,4.52-1.21l1.13.38-8.23,24.34a2.52,2.52,0,0,0-3.24,1.64,3.25,3.25,0,0,0,.09,2.43l15.32,5.19A3.33,3.33,0,0,0,302.88,89a2.48,2.48,0,0,0-1.57-3.27l8.23-24.34,1.13.38c1.84.63,2.23,1.84,2.86,3.71.54,1.61.89,2.59,2.22,3a2.14,2.14,0,0,0,2.78-1,3.65,3.65,0,0,0,.2-2.27ZM339,76.53a2.53,2.53,0,0,0,3.5-1,3.34,3.34,0,0,0,.38-2.4l-14-8A3.07,3.07,0,0,0,327,66.62a2.51,2.51,0,0,0,.91,3.52L315,92.5a2.51,2.51,0,0,0-3.49,1,3,3,0,0,0-.34,2.42l14,8a3.37,3.37,0,0,0,1.89-1.54,2.52,2.52,0,0,0-.91-3.52ZM371.9,95.6a3.34,3.34,0,0,0-2.15,1.15c-1,1.19-.84,2.71.55,3.91l.25.22c-1.19,1.54-3.17,4-6.85,8.23l-2.3,2.66-.08-.07,1.09-24.31-9.48-8.22a3.1,3.1,0,0,0-2.19,1.12c-1,1.18-.75,2.35.06,3.48l.13.18-8.53,9.86c-5.07,5.84-7.49,8.47-8.45,9.5a2.49,2.49,0,0,0-3.5.4,3.07,3.07,0,0,0-.79,2.32l7.19,6.23a3.3,3.3,0,0,0,2.15-1.15c1-1.18.84-2.7-.55-3.91l-.45-.39c1.19-1.54,3.23-4.06,6.81-8.19l3-3.44.08.07-1,25.69,7.48,6.48L366,113.93c4.25-4.91,7.52-8.44,8.6-9.51a2.43,2.43,0,0,0,3.41-.48,3.35,3.35,0,0,0,.84-2.28Zm.35,47.74c-1.85-2.6.09-6.23,8.06-11.91,7.45-5.29,12.4-6.55,14.25-4s-.9,6.94-8.35,12.24S374.17,146,372.25,143.34Zm-4.36,3.1c5.05,7.1,16,12.4,26.83,4.69s8.79-19.46,3.8-26.47c-4.82-6.79-15.95-12.35-26.7-4.71S363,139.52,367.89,146.44ZM101.28,129.93c1.38-4.93.53-10-2.87-12.4-8.64-6.14-15.67,2.73-19.81,8.55-5.45,7.66-8.47,12.09-9.45,13.65a3.09,3.09,0,0,0,1.32,2.07,2.52,2.52,0,0,0,3.59-.57l21,15a2.51,2.51,0,0,0,.64,3.58,3.08,3.08,0,0,0,2.38.57l9.34-13.14a3.3,3.3,0,0,0-1.34-2,2.51,2.51,0,0,0-3.59.57l-7.85-5.58a4.07,4.07,0,0,1,2.42-1.54c4.59-1.31,12.52,6.38,18.6-2.17,3.63-5.11,2.61-9.09.72-10.44a1.48,1.48,0,0,0-2.21.22c-.54.75-.57,1.26-1,1.88-1.53,2.16-5.45-2-11.6,2Z"/><path class="cls-10" d="M327.8,339.93h58.76v4.34H327.8ZM117.57,247.11l-.49,18.22q-1,2.49-2,5l.68-19.22C116.39,249.76,117,248.44,117.57,247.11Zm3.63-11h-3.33l-.22,8.16c-.58,1.3-1.16,2.6-1.75,3.89l.49-13.89A407.89,407.89,0,0,0,138,187.63,344.3,344.3,0,0,1,121.2,236.08Zm1,15.71.14-15.61a368.94,368.94,0,0,0,16.61-47.5C135.64,209.88,129.48,231.36,122.16,251.79Zm-4.32-58.52a10.13,10.13,0,0,1,6.44-4.59c4.17-1,8.62-2,11.78-2.65A289.39,289.39,0,0,1,122.48,212c.06-5.25.15-11.71.2-16.45l-3.72.19,0,.77c-.28,10.34-.41,17.39-.45,22-.1,5.18-.2,10.37-.35,15.65C119.79,226,136,225.07,140,230.9l.11-15.08c-2.75.69-20.86,6.41-20.61,3.33-.07-.72,2.08-1.26,2.89-1.26,0-.73,0-1.57,0-2.49a252.85,252.85,0,0,0,13-24.18A390.94,390.94,0,0,1,116.47,232l.27-7.55,1.74-2.67c0-.89,0-1.93,0-3.15l-1.64,2.61Zm-16.36,52.15c-1.72,7.38-3.34,14.52-4.74,20.82-4.8,7.76-9.66,15.32-14.48,22.59,1.76-5.4,6-18.43,11-33.56Q97.42,250.49,101.48,245.42Zm5.92-7.67c-.65,4.68-1.26,9.33-1.84,13.8q-2.93,5-5.92,9.95c1.28-5.94,2.69-12.43,4.18-19C105,240.9,106.22,239.34,107.4,237.75Zm4.14-27.92c-1.26,7.66-2.52,16.23-3.71,24.81-1.07,1.49-2.15,3-3.26,4.48C106.86,229,109.27,218.75,111.54,209.83Zm2.95-16.15c-.24,1.11-.47,2.28-.71,3.5-3.47,11.59-7.71,28.7-11.55,45-2.54,3.33-5.2,6.65-8,9.92,7.32-22.32,15.89-48.25,20.34-61Zm-4.74,38.22c1.42-10.84,2.93-21.51,4.41-30.21l-1,25.23Q111.49,229.4,109.75,231.9Zm-2,15.83c.51-4.13,1-8.37,1.58-12.62q1.86-2.56,3.68-5.18l-.37,9.11Q110.24,243.42,107.76,247.73Zm-2.64,22.71c.65-5.82,1.44-12.68,2.31-20q2.59-4.56,5.12-9.15l-.62,15.3Q108.59,263.63,105.12,270.44Zm1.11-64.37c-3,5.13-6.36,10.61-10.11,16.26C89.39,235.88,72.64,265,62.57,282.26a169,169,0,0,0,15.9-13.38C87.37,249.41,99.47,222.6,106.23,206.07Zm5.41-9.72c-.54,1-1.11,2.06-1.69,3.12-5.31,14.35-18.35,44.11-28.2,66.22,3.35-3.33,6.57-6.77,9.66-10.28C98.28,235.08,106.5,210.91,111.64,196.35ZM35.24,283.8c32.84-20.14,63-63.88,79.58-98.46l.17-4.06,3.35-2.1-.11,3c6.14-2.19,22.07-6.9,22.07-6.9l.79,11.29c-1,34.86-7.9,65.45-16.66,97.69l-2.06.25c9.13-29.74,17.12-63.89,18-97.28-3.45,22.65-10.33,46-18.22,68.25l-.27,29.09-5.31.67.43-15.68c-.67,1.78-1.35,3.54-2,5.3l-.38,10.64-3.83.5,0-.41-.17.43-2.17.3q1.27-3,2.55-6l.84-20.63q-3.54,7.56-7.16,14.91c-.67,6.08-1.14,10.54-1.33,12.39l-2.15.31c.13-1.14.43-3.74.86-7.4-1.31,2.64-2.62,5.26-3.92,7.84l-2.29.34q3.38-6.24,6.76-12.73c.69-5.74,1.58-13,2.61-21q-3.15,5.46-6.35,10.83c-2.45,11.49-4.27,20.37-4.85,23.18l-2.18.33c.43-2,1.94-9,4-18.53C91.78,277,87.7,283.57,83.68,290l-4.13.67c1.1-3.29,5.47-16.33,10.84-32.24-3.29,3.61-6.64,7.08-10,10.37-5.34,12-9.51,21.16-10.6,23.55l-2.31.41c.63-1.35,4.46-9.58,9.61-20.82a180,180,0,0,1-16.44,13.67l-5.56,9.48-2.4.48L57.18,288a105.15,105.15,0,0,1-18.3,10.23c-.18-.6-.35-1.2-.52-1.81a124.17,124.17,0,0,0,20.83-11.78c8.61-14.4,23.35-39.3,32-55.11-14.46,20.5-33.42,42.13-55.42,56.63C35.58,285.4,35.41,284.6,35.24,283.8Zm310.37-42.37-3.34-.41-.15,7.11c-.57,1.07-1.15,2.12-1.73,3.18l.37-12.08A284.64,284.64,0,0,0,362,201.16,240.53,240.53,0,0,1,345.61,241.43Zm1.1,13.86V241.66A256.9,256.9,0,0,0,363,202.19C359.88,220.32,353.89,238.34,346.71,255.29Zm.58,29.61c8.8-24.75,16.57-54.95,17.11-83.79-3.26,19.38-10,38.91-17.69,57.41l-.18,26.29ZM345,322.68h3.06v16H345Zm2.7-100.56h0c-.34.47-.68.93-1,1.39v2.17a6.69,6.69,0,0,0-2.2.19l-.66.77c.76,2.29,18-.31,20.65-.57l0,13.18c-4.11-5.61-20.36-6.8-22,.09.08-3.87.14-7.68.18-11.49l0,0v.75c-.56.71-1.14,1.42-1.72,2.12l-.2,6.57A273.05,273.05,0,0,0,359.46,204,177.23,177.23,0,0,1,347.69,222.12Zm-6.56,5q3.12-3.6,6.21-7.53a184.9,184.9,0,0,0,12.75-20.12c-3.17.22-7.64.54-11.82.86a8.58,8.58,0,0,0-6.42,3.21ZM151.38,283.51l-.62-18.8-.1-2.78-.35-10.58-.18-5.59-.11-3.12-.07-2.19-.18-5.48L148,182.65l-.28-8.31-5.83-1.55L145,337.61h8.17l-1.67-50c58.39-6,134.3-8.34,217.6,3.17l1.35,47.13h8.21c-.75-15.12-1.5-30.84-2.25-46.8,9.44,1.39,37.24,5.68,59.9,11.28.16-.52.32-1,.47-1.57-22.83-6-51.1-10.74-60.49-12.25-1-20.93-1.47-42.25-2.09-63.16l9.5,62.73,1.58.28-11.47-75.73,19.31,77.15,1,.18h.56L376,215l27.3,76.67,1.64.31-27.24-76.52,35.84,78.16,1.69.34-30.39-66.28L423,295.57l1.81.37L400.12,252.1c12,18.09,25.51,35.17,37.7,45.31.28-1,.54-2,.81-3-29.9-27-48.65-58.9-65.32-95.16q-.18-4.29-.38-8.53l-5.16-2.08L369,287.74q-10-1.44-19.76-2.61c8.44-26.94,16.09-54.19,16.73-84.38l-.42-10.46s-17.29,3.94-23.43,5.09l.08-2.62-3.35,1.42,1.56,59.48c.55-1,1.1-2,1.64-3l-.33,15.87c-.31.65-.61,1.31-.92,2l.09,3.41.75-1.67-.42,14C278.15,275.59,207.17,278.24,151.38,283.51ZM119.82,304.9v-4.17s-43.75,6-75.35,14.09c.57,1.5,1.17,3,1.78,4.48C54.78,317,75.4,312.09,119.82,304.9Zm-.67,32.71h3.32v-15L119.15,320Zm-18.29,1.9H160.8v5.15H100.86ZM139,284.76c-51,5.48-86.71,12.88-99.41,15.73.58,1.93,1.19,3.84,1.83,5.75,14.08-3.57,48.91-11.56,97.68-17.27Zm207.71-61.44v.19M122.48,212c0,1.22,0,2.37,0,3.42"/><path class="cls-7" d="M395.79,341.82s-1.87-.25,6.12-.25,12.73-.74,12.85,0-13.85,2.13-19,.25M86.31,380.34c5-2.49,14-5.24,29.06-5.24,27.45,0,32.27,3.85,46.72-9.64s44.8-10.59,85.26-11.56,91,7.23,89.12-.48,17.34-5.78,26.49-5.78S348,349.57,343.69,351s11.56,5.78-14.93,8.19-115.61-6.26-146,0S165,379,141.38,379c-21.44,0-42.08,1.59-51.1,5.49C88.94,383.09,87.61,381.72,86.31,380.34Z"/><path class="cls-11" d="M302.78,382.35c-2.12.63-4.43,1.29-6.83,2,2.41-.68,4.67-1.33,6.83-2m0-.46,0,.35ZM169.55,406.73l4.63-2a7.92,7.92,0,0,0,1.43-.62l10.95-4.7c11.36.87,22.65,1.64,28.21,1.72a100.44,100.44,0,0,0,17.28-1.45,12.28,12.28,0,0,1-3.92.87,11,11,0,0,0,10.8,9.33h5.52c6.4,0,11-7,12.84-15.1,4-1,21.58-5.66,36.38-9.81,1.42,4.16,4.11,5.42,10.51,5.42,6.8,0,9.12-3.37,10.21-9.75,8.41,2.35,14.26,4.21,14.26,4.21s11.68,2.92-5.84,8.39-63.49,22.26-63.49,22.26-18.25,6.93-33.94,5.11-56.19-6.2-56.19-6.2S155,410.75,169.55,406.73Z"/><path class="cls-2" d="M207.43,313.61c-10.06-3.44-19.44-11.54-10-16.12,2.44-1,6.59-8.17,18.39-5.63s42.81,14.54,44.28,14.54,3.11,1.47,6.05-1.63,8.32-11.25,10.24-10.81l3.73.86s1.55.14.25,2.76l-4.25,11.6,23.46-1.47c4-.26,8.62,3.48,2.63,4l-22.61,2.87c-2.23.63-1.32,1.36.77,1.16l12.41.32c2-.08,2.88,2.23,1.48,2.77-2.89,1.13-17.63.11-18.38,1.39-3.82,6.53-22.83,5.93-27.22,4.83-10.45-2.61-23.28-6-23.28-6l-7.76.24c1.19,4.35-1.79,7.84-6.71,6.06-3.15-1.13-7.41-2.9-6.06-6.59l-17.41.36c-1.58,0-2.12-2.82.26-3.11Z"/><path class="cls-7" d="M286.16,322.73l1.28-1.62,28.77,9.69s.27.63-1.73,0-28.32-8-28.32-8m-8,1.58,1.52-1.64,34.18,10.83s.33.66-2-.09S278.16,324.31,278.16,324.31Zm-5.06,3.41,1.74-1.89,39.11,12s.38.75-2.34-.08S273.1,327.72,273.1,327.72ZM211.59,317c2.28,2,1.49,6.53-1.4,7,0,0-.2.93,3.72.7C219.81,324.35,216.89,317.48,211.59,317Zm-2.73-.64a3.61,3.61,0,0,1,3.32,3.73,3.37,3.37,0,0,1-3.32,3.54,3.6,3.6,0,0,1-3.33-3.72A3.38,3.38,0,0,1,208.86,316.34Zm0,1.15a2.46,2.46,0,0,1,2.27,2.55,2.31,2.31,0,0,1-2.27,2.43,2.47,2.47,0,0,1-2.28-2.55A2.31,2.31,0,0,1,208.86,317.49Zm.84-3,3.56,1.17-25.21,2.06s-1.26-.57.19-.94S209.7,314.53,209.7,314.53Zm11.39-15.25a29.82,29.82,0,0,1,.16,4.4c-.26,2.94-1.1,4.26,0,4.52s2.26.65,2.66-.81c.52-3.51,1.07-8.66-1.26-9.22C220.92,297.75,221,298.29,221.09,299.28Zm3.77,8.37a2.15,2.15,0,0,1-1.88,1.76,5.74,5.74,0,0,1-1.93-.26c-1.2-.28-1.42-1.26-1.27-2.34.06-.46.16-.93.25-1.39.1-.61.19-1.21.25-1.82a30.46,30.46,0,0,0-.17-4.28,2.3,2.3,0,0,1,.37-1.77,2.37,2.37,0,0,1,2.41-.33c1.94.46,2.37,2.71,2.45,4.4a30.9,30.9,0,0,1-.45,5.92A.45.45,0,0,1,224.86,307.65Zm7.29-5.78.8.14a.51.51,0,0,1,.4.49l0,2.18a.34.34,0,0,1-.41.35l-.81-.15a.49.49,0,0,1-.39-.49l0-2.18A.33.33,0,0,1,232.15,301.87Zm3.73,1.17.81.15a.51.51,0,0,1,.4.49l0,2.18a.34.34,0,0,1-.41.34l-.81-.14a.51.51,0,0,1-.4-.49l0-2.18A.35.35,0,0,1,235.88,303Zm3.74,1.18.81.15a.49.49,0,0,1,.39.49l0,2.18a.33.33,0,0,1-.41.34l-.8-.15a.51.51,0,0,1-.4-.49l0-2.18A.34.34,0,0,1,239.62,304.22Zm3.74,1.18.8.14a.51.51,0,0,1,.4.49l0,2.19a.34.34,0,0,1-.41.34l-.8-.15a.5.5,0,0,1-.4-.49l0-2.18A.34.34,0,0,1,243.36,305.4Zm3.74,1.17.8.15a.51.51,0,0,1,.4.49l0,2.18a.34.34,0,0,1-.41.34l-.81-.14a.49.49,0,0,1-.39-.49l0-2.18A.34.34,0,0,1,247.1,306.57ZM254.16,319a7.81,7.81,0,0,0,4.28,3.37c3.09,1.05,4.21.49,4.49,1.54s-3.58.63-9.4.14a79.33,79.33,0,0,1-17.48-3.72c-6.67-2-23.17-5.4-31-9.26s-8.57-5.62-9.9-7.87.77-3.23,2.18-4a22.48,22.48,0,0,0,2-1.34c1.6.21,5.68.76,10.17,1.64,4.72.94,4.18-3.43,2.24-3.62a51,51,0,0,0-8.55-.82l1-.7c2.32-1.69,7.45-2.88,15.73-.21s38.33,13.41,41.42,14.53,3.16,1-1.41,1.19c-1.45.07-4.49.24-8,.45l0-2a.51.51,0,0,0-.4-.49l-.81-.15a.35.35,0,0,0-.41.34l0,2.19a.45.45,0,0,0,0,.16l-15.36.94a2.85,2.85,0,0,0-2.73,2.59c-.15,2.46,2,2.81,6.73,4.92s7.38,2.38,10,1.68S253.74,318.12,254.16,319Zm-25.75-18.34.8.15a.5.5,0,0,1,.4.48l0,2.19a.34.34,0,0,1-.41.34l-.8-.15a.5.5,0,0,1-.4-.49l0-2.18A.34.34,0,0,1,228.41,300.69Zm33.2,13.66c2.41,2,1.57,6.77-1.49,7.35,0,0-.21,1,3.94.63C270.29,321.8,267.2,314.72,261.61,314.35Zm-2.89-.59a3.8,3.8,0,1,1-3.51,3.79A3.66,3.66,0,0,1,258.72,313.76Zm0,1.2a2.6,2.6,0,1,1-2.4,2.59A2.51,2.51,0,0,1,258.72,315Zm8.92,1.82h24.92s1.12.84,0,1.2-20.08.7-20.08.7-.42-.28-.07-1-.77-.56-1,.22-.35,1.4,1.68,1.61,2.18.91-.63,2.18-5.19,2-6.53,1.54,2.39-1.05,2.6-3.58S267.36,317.48,267.64,316.78Zm-4.75-9.1c1.64.43,2.43.52,5.43-3.15l6.65-8.15c.43-.54,1-1.33,2-1s2.78.28,2.18,1.67-4.07,12.21-4.07,12.21l-9.33.3S262.8,309,262.89,307.68Zm-28.12,4.79L300,308.6s3.58.89,1.89,1.09-67.41,5.46-67.41,5.46C233.57,315.64,232.58,313.06,234.77,312.47Z"/><path class="cls-7" d="M214.77,401.12c-13.54-.21-61-4.44-61-4.44s-7.2,0-7.2-9.95,1.06-21.16,11.43-25.61,28.57-8.46,28.57-8.46-3-3.81.64-5.93a8.63,8.63,0,0,1,7.19-.63l14.18-10.8a39.83,39.83,0,0,1,11.22-4,111.2,111.2,0,0,1,11.22-1.06s1.9-4.44,4.44-4.65,12.28-.64,12.28-.64,2.75-.21,3.81,1.48,2.54,3.81,2.54,3.81l21.8-.21s15.45,1.06,22,7.62,7.2,8,12.91,8.89,5.93,2.33,6.77,6.56,3.18,13.76,2.54,17.14-.84,5.51-5.08,8l-.39.2c0-.16,0-.33,0-.49.22-8.61-2.3-15.58-5.63-15.58s-6.2,7-6.43,15.58a38.84,38.84,0,0,0,.13,4.37C285.49,387.42,256.47,395,256.47,395c-13.43,2.46-28.12,6.35-41.7,6.13"/><path class="cls-2" d="M287.4,351.74l-26.26,4.84s-2.47,1.34-1.24-3.71,5.36-17,9.89-18.23a31.66,31.66,0,0,1,8.24-1.13,47.69,47.69,0,0,1,3.71,9.06,58.17,58.17,0,0,1,1.95,9l3.81-.41a57.19,57.19,0,0,0-2.78-9.37,59.13,59.13,0,0,0-3.71-8.13s8.55.92,14.11,5.35A41.48,41.48,0,0,1,304,349l-15.65,2.78s1.13,3,1.34,9.37-.62,20.6-.62,20.6l10.4-2.17s1,.11,1.23-3.29.21-6,1.65-9.06,2.89-7.73,2.89-9.68.72-1.45.72-1.45a10.06,10.06,0,0,1-.52,5.15c-1,3.09-2.57,6.7-3.29,9.89s-.21,8.44-1.86,9-39.44,9.06-39.44,9.06,1.24-18.64.62-23.79a57.86,57.86,0,0,0-1.24-7.41s1.55,1.54,1.86,5.66.31,24.1.31,24.1L287.81,382s.62-.21.83-4.54.3-17,0-18.74l-1.24-7m-89.29,18.52c1-1.17,3.94-3.66,11.25-6.24,10-3.53,34.41-9,36.76-9s1.77.44-2.94,1.32-32.5,8.68-32.5,8.68-8.73,3.52-12.43,6.47a18.32,18.32,0,0,1-1.06,3.56c-1.05,3-2.22,5-8.37,5.62s-18.84,0-24.34-1.31-4.58-8.63-4.58-8.63c-.13-1.31,1.31-2.49,3.14-2.49s27.74.4,32.19.66C196.94,369,197.78,369.52,198.11,370.26Zm-46.38-2.37s1.43-3.67,3.6-1.69c3.13,2.25,4.77,11.23,2.51,11.23s-6.89-.79-7.55-2.3a2,2,0,0,1,.28-2.35c-.84,2,7.47,4.66,6.63,1.61C157.2,372.15,155,364.06,151.73,367.89Zm48.66,11.22a11.9,11.9,0,0,1,9.53-10.28A143.72,143.72,0,0,1,228.21,366s6-.28,5.38,4.15-6.89,8.49-11,8.58S200.39,379.11,200.39,379.11Zm2-1.66c6.71-.1,13.42-.19,20.13-.34,3.41-.08,8.93-3.62,9.46-7.2.17-1.11-.31-1.6-1.29-2a7.07,7.07,0,0,0-2.38-.34c-1.9.16-3.81.38-5.7.63-4.13.53-8.27,1.22-12.33,2.16a10.33,10.33,0,0,0-7,5A11.58,11.58,0,0,0,202.39,377.45Zm-52.1,9.14s7.18,1.07,18,1.94l.11-4.35L186,385l.2,4.51,1.94,0c20.88.4,38.81-1.07,38.81-1.07s-.4,7.23-9.63,8.16-56.87-.66-61.69-2.81S150.29,391.94,150.29,386.59ZM190,352.64S206.71,338.1,210,336.36s4.11-1.1,8.69-1.42,44.4.16,44.4.16l-8.22,18.33Z"/><path class="cls-12" d="M254.78,373.66c7.57,10,2.08,36.21-10.33,36.21h-5.52a11,11,0,0,1-10.8-9.33c2.8-.2,6.73-1.16,7.12-4.93,0-16.2,10.6-32,19.53-21.95m-75.13,25.2a8.26,8.26,0,0,1-8,6.26H165a8.24,8.24,0,0,1-8.22-8.18C161.13,397.32,170,398.08,179.65,398.86Zm135-20.39c-1,7.78-3,11.91-10.52,11.91-6.4,0-9.09-1.26-10.51-5.42l.16,0,.14,0h0l.15,0,.76-.22h0c2.81-.79,5.42-1.53,7.88-2.26,0-.16,0-.31,0-.46-.09-1.25-.12-2.56-.09-3.91.23-8.61,3.1-15.58,6.43-15.58s5.85,7,5.63,15.58C314.71,378.14,314.7,378.31,314.7,378.47Z"/><path class="cls-10" d="M309,368c2.17,0,3.79,4.08,3.62,9.11s-2.07,9.11-4.25,9.11-3.79-4.07-3.62-9.11S306.81,368,309,368m-60.68,11.38c3.53,0,6.15,5.6,5.86,12.5s-3.39,12.5-6.91,12.5-6.15-5.6-5.86-12.5S244.79,379.35,248.31,379.35Z"/><path class="cls-12" d="M273.08,370.86v-4.18l-1.13.19v-1.49l3.52-.59v1.49l-1.13.19v4.17Zm3.84-2.59.79-.14-.39-1.89Zm2.4,1.46,1.31-3.1-1.22-2.51,1.41-.24.53,1.34.57-1.53,1.39-.23L282,366.39l1.32,2.72-1.42.25-.6-1.44-.6,1.64-1.39.24h0l-1.2.21-.15-.73-1.25.22-.15.77-1.24.21,1.38-5.9,1.28-.21Zm4.38-.68v-5.66l1.29-.22v5.67ZM238.59,331l-.06-1.57c0-.52,0-1-.05-1.56l-.91,0c0-.37,0-.74,0-1.11l2.82-.15c0,.38,0,.76.05,1.14l-.91,0c0,.53,0,1.06.07,1.58l.06,1.59Zm3.07-1.51h.64l-.2-.77c-.07-.25-.13-.51-.2-.76l-.12.77Zm2,1.45c.16-.38.32-.77.47-1.15l.46-1.17-.57-1.08-.56-1.06,1.14-.06c.16.38.33.76.5,1.14.12-.39.25-.79.38-1.19l1.11-.06c-.14.39-.29.77-.43,1.15s-.29.75-.44,1.13c.21.4.42.79.62,1.19L247,331h-1.17l-.57-1.25c-.13.42-.27.83-.4,1.25h-2.18l-.15-.59h-1l-.09.58h-1c.15-.73.31-1.45.46-2.19l.45-2.21,1-.06c.22.73.45,1.46.67,2.19Zm8.1.25h-3.58c-.59,0-.69-.41-.7-1.37a21.91,21.91,0,0,0-.14-2.32c-.07-.77-.14-1.37-.14-1.37s1.37-.22,2,.33a12.84,12.84,0,0,1,1.72,2.18c.62.88,1.13,1.67,1.13,1.67S252.77,331.39,251.8,331.19Zm-18.62,0h3.58c.59,0,.64-.37.55-1.22a17.13,17.13,0,0,1-.09-2.06c0-.68,0-1.21,0-1.21a3.37,3.37,0,0,0-1.93.47,12.42,12.42,0,0,0-1.5,1.93c-.52.73-1,1.37-1,1.37S232.23,331.32,233.18,331.16Zm28,28.11,2.37-.41v2.42l1.58-.27v-2.42l2.38-.41v2.42l1.58-.27v-2.42l2.37-.41v2.42l1.59-.28v-2.42l2.37-.4v2.42L277,359h0v-2.42l2.38-.41v2.42l1.58-.27v-2.42l2.37-.41v2.42l1.59-.27v-2.42l2.37-.41v2.42l1.58-.27V354.5l2.38-.41v2.42l1.58-.28v-2.42l2.37-.41v2.42l1.59-.27h0v-2.42l2.37-.41v2.42l1.58-.27v-2.42l2.38-.41v2.42l1.58-.27h0v-2.42l2.37-.41v2.42l1.58-.27v-2.42l2.38-.41v2.42l1.58-.28V350.4L315,350v2.42l2.37-.41v2.42l-2.37.41v-2.42l-1.59.28v2.42l-2.37.41V353.1l-1.58.27h0v2.42l-2.38.41v-2.42l-1.58.27v2.42l-2.37.41v-2.42l-1.59.27v2.42l-2.37.41v-2.42l-1.58.28v2.42l-2.38.4v-2.42l-1.58.28v2.42l-2.37.41v-2.42l-1.59.27v2.42l-2.37.41v-2.42l-1.58.27v2.42l-2.38.41v-2.42l-1.58.27h0v2.42l-2.37.41v-2.42l-1.59.28v2.42l-2.37.4v-2.41l-1.58.27v2.42l-2.38.41v-2.42l-1.58.27v2.42l-2.37.41V360.6l-1.59.27h0v2.42l-2.37.41v-2.42l-2.37.41Z"/><path class="cls-8" d="M148.19,135.14H163V142H157.1v6.53h5.54V155H157.1v7.52h6.53v6.84H148.19ZM175.07,141v7.61a3.82,3.82,0,0,0,2.09-.41c.39-.27.59-1.16.59-2.67v-1.88a2.89,2.89,0,0,0-.57-2.14A3.27,3.27,0,0,0,175.07,141Zm-8.91-5.84h6.29a47.5,47.5,0,0,1,8.53.49,5.87,5.87,0,0,1,3.63,2.48c.94,1.33,1.4,3.46,1.4,6.37q0,4-1,5.36c-.66.92-2,1.46-3.91,1.64a6.79,6.79,0,0,1,3.56,1.76,5.18,5.18,0,0,1,1.12,2,31.67,31.67,0,0,1,.22,5.06v9h-8.26V158a7.84,7.84,0,0,0-.43-3.4q-.42-.66-2.25-.66v15.45h-8.91Zm44.4,0-4.5,34.22H192.58l-5.16-34.22h9.39q1.59,14.16,2.31,23.94.72-9.89,1.46-17.56l.59-6.38Zm10.45,0v34.22H212.1V135.14Zm24.31,14.92h-8.91v-5.94a10.67,10.67,0,0,0-.28-3.23,1.22,1.22,0,0,0-1.25-.64,1.29,1.29,0,0,0-1.37.77,11.87,11.87,0,0,0-.3,3.39v15.87a11,11,0,0,0,.3,3.26,1.5,1.5,0,0,0,2.6,0,12.65,12.65,0,0,0,.3-3.58v-4.31h8.91V157a26.36,26.36,0,0,1-.75,7.54,7.77,7.77,0,0,1-3.31,3.9,11.33,11.33,0,0,1-6.33,1.67,13.19,13.19,0,0,1-6.45-1.41,6.94,6.94,0,0,1-3.36-3.92,25.85,25.85,0,0,1-.82-7.54v-10a46.36,46.36,0,0,1,.25-5.54,7.78,7.78,0,0,1,1.52-3.56,8.39,8.39,0,0,1,3.48-2.7,14.28,14.28,0,0,1,11.61.54,7.29,7.29,0,0,1,3.36,3.79,22.9,22.9,0,0,1,.8,7.05Zm3.19-14.92h14.83V142h-5.92v6.53H263V155h-5.53v7.52H264v6.84H248.51Zm36.78,10.38H277V143a5.17,5.17,0,0,0-.31-2.26,1.14,1.14,0,0,0-1.05-.48,1.33,1.33,0,0,0-1.21.65,3.8,3.8,0,0,0-.41,2,5.57,5.57,0,0,0,.47,2.57,7,7,0,0,0,2.51,2.09q5.93,3.54,7.46,5.8t1.54,7.29a12.83,12.83,0,0,1-.86,5.39,6.66,6.66,0,0,1-3.3,2.9,13,13,0,0,1-5.69,1.17,12.81,12.81,0,0,1-6.1-1.35,6.7,6.7,0,0,1-3.3-3.44,17.75,17.75,0,0,1-.78-5.94v-2.25h8.26v4.16a5.54,5.54,0,0,0,.35,2.48,1.35,1.35,0,0,0,1.23.54,1.45,1.45,0,0,0,1.32-.69,4,4,0,0,0,.44-2.07c0-2-.28-3.33-.83-3.94a26.48,26.48,0,0,0-4.16-3.11,40.94,40.94,0,0,1-4.38-3.2,7.57,7.57,0,0,1-1.78-2.74,12.12,12.12,0,0,1-.71-4.48,12.44,12.44,0,0,1,1-5.75,6.78,6.78,0,0,1,3.23-2.84,13,13,0,0,1,5.4-1,14,14,0,0,1,5.9,1.12,6.13,6.13,0,0,1,3.22,2.82,14.93,14.93,0,0,1,.79,5.78Zm20.1-10.38v27.38h5.36v6.84H296.47V135.14Zm16.45,0v27.38h5.36v6.84H312.93V135.14Zm27.64,14.92h-8.91v-5.94a10.67,10.67,0,0,0-.28-3.23,1.22,1.22,0,0,0-1.25-.64,1.29,1.29,0,0,0-1.37.77,11.87,11.87,0,0,0-.3,3.39v15.87a11,11,0,0,0,.3,3.26,1.5,1.5,0,0,0,2.6,0,12.65,12.65,0,0,0,.3-3.58v-4.31h8.91V157a26.36,26.36,0,0,1-.75,7.54,7.77,7.77,0,0,1-3.31,3.9,11.35,11.35,0,0,1-6.33,1.67,13.19,13.19,0,0,1-6.45-1.41,6.91,6.91,0,0,1-3.36-3.92,25.85,25.85,0,0,1-.82-7.54v-10a46.36,46.36,0,0,1,.25-5.54,7.78,7.78,0,0,1,1.52-3.56,8.39,8.39,0,0,1,3.48-2.7,14.28,14.28,0,0,1,11.61.54,7.29,7.29,0,0,1,3.36,3.79,22.9,22.9,0,0,1,.8,7.05Zm-204.84-4.54h-8.26V143a5,5,0,0,0-.32-2.26,1.14,1.14,0,0,0-1.05-.48,1.34,1.34,0,0,0-1.21.65,3.8,3.8,0,0,0-.41,2,5.57,5.57,0,0,0,.47,2.57,6.92,6.92,0,0,0,2.52,2.09q5.91,3.54,7.45,5.8t1.54,7.29a12.83,12.83,0,0,1-.86,5.39,6.66,6.66,0,0,1-3.3,2.9,13,13,0,0,1-5.69,1.17,12.74,12.74,0,0,1-6.09-1.35,6.73,6.73,0,0,1-3.31-3.44,18.05,18.05,0,0,1-.77-5.94v-2.25h8.26v4.16a5.58,5.58,0,0,0,.34,2.48,1.35,1.35,0,0,0,1.24.54,1.43,1.43,0,0,0,1.31-.69,4,4,0,0,0,.44-2.07c0-2-.28-3.33-.82-3.94a27,27,0,0,0-4.16-3.11,40.32,40.32,0,0,1-4.39-3.2,7.57,7.57,0,0,1-1.78-2.74,12.14,12.14,0,0,1-.7-4.48,12.46,12.46,0,0,1,1-5.75,6.78,6.78,0,0,1,3.23-2.84,13,13,0,0,1,5.4-1,14,14,0,0,1,5.9,1.12,6.13,6.13,0,0,1,3.22,2.82,14.89,14.89,0,0,1,.8,5.78Z"/><path class="cls-9" d="M148.19,135.14H163V142H157.1v6.54h5.54V155H157.1v7.53h6.53v6.83H148.19ZM175.07,141v7.61a3.82,3.82,0,0,0,2.09-.41c.39-.27.59-1.17.59-2.67v-1.88a2.93,2.93,0,0,0-.57-2.15A3.32,3.32,0,0,0,175.07,141Zm-8.91-5.84h6.3a48.74,48.74,0,0,1,8.52.48,5.93,5.93,0,0,1,3.63,2.49q1.41,2,1.41,6.37c0,2.66-.34,4.44-1,5.36s-2,1.46-3.91,1.64a6.79,6.79,0,0,1,3.56,1.76,5.18,5.18,0,0,1,1.12,2,31.14,31.14,0,0,1,.23,5.06v9h-8.27V158a7.84,7.84,0,0,0-.43-3.4q-.42-.66-2.25-.66v15.44h-8.91Zm44.4,0-4.5,34.21H192.58l-5.16-34.21h9.39q1.59,14.16,2.31,23.94.72-9.9,1.46-17.56l.6-6.38Zm10.45,0v34.21H212.1V135.14Zm24.31,14.92h-8.91v-5.94a10.67,10.67,0,0,0-.28-3.23,1.21,1.21,0,0,0-1.25-.65,1.29,1.29,0,0,0-1.37.78,11.79,11.79,0,0,0-.3,3.38v15.88a11.06,11.06,0,0,0,.3,3.26,1.5,1.5,0,0,0,2.6,0,12.7,12.7,0,0,0,.3-3.58v-4.31h8.91V157a26.36,26.36,0,0,1-.75,7.54,7.68,7.68,0,0,1-3.31,3.9,11.41,11.41,0,0,1-6.33,1.67,13.22,13.22,0,0,1-6.45-1.41,6.93,6.93,0,0,1-3.36-3.93,26.07,26.07,0,0,1-.82-7.53v-10a46.24,46.24,0,0,1,.25-5.54,7.69,7.69,0,0,1,1.52-3.56,8.39,8.39,0,0,1,3.48-2.7,14.28,14.28,0,0,1,11.61.54,7.31,7.31,0,0,1,3.36,3.78,22.71,22.71,0,0,1,.8,7.06Zm3.19-14.92h14.83V142h-5.92v6.54H263V155h-5.54v7.53H264v6.83H248.51Zm36.79,10.38H277V143a5,5,0,0,0-.31-2.26,1.15,1.15,0,0,0-1.05-.49,1.34,1.34,0,0,0-1.21.66,3.8,3.8,0,0,0-.41,2,5.6,5.6,0,0,0,.47,2.57,7,7,0,0,0,2.51,2.09q5.93,3.54,7.46,5.8t1.54,7.28a12.85,12.85,0,0,1-.86,5.4,6.6,6.6,0,0,1-3.3,2.89,12.88,12.88,0,0,1-5.69,1.18,12.74,12.74,0,0,1-6.09-1.36,6.67,6.67,0,0,1-3.31-3.43,17.79,17.79,0,0,1-.78-5.94v-2.25h8.27v4.16a5.58,5.58,0,0,0,.34,2.48,1.35,1.35,0,0,0,1.23.54,1.42,1.42,0,0,0,1.32-.7,3.92,3.92,0,0,0,.44-2.06c0-2-.28-3.33-.82-3.94a27.52,27.52,0,0,0-4.16-3.12,40.67,40.67,0,0,1-4.39-3.19,7.53,7.53,0,0,1-1.78-2.75,12.08,12.08,0,0,1-.7-4.47,12.43,12.43,0,0,1,1-5.75,6.78,6.78,0,0,1,3.23-2.84,13,13,0,0,1,5.4-1,14,14,0,0,1,5.9,1.12,6.13,6.13,0,0,1,3.22,2.82,14.86,14.86,0,0,1,.8,5.78Zm20.09-10.38v27.38h5.36v6.83H296.48V135.14Zm16.45,0v27.38h5.36v6.83H312.93V135.14Zm27.64,14.92h-8.91v-5.94a10.67,10.67,0,0,0-.28-3.23,1.21,1.21,0,0,0-1.24-.65,1.29,1.29,0,0,0-1.38.78,11.79,11.79,0,0,0-.3,3.38v15.88a11.06,11.06,0,0,0,.3,3.26,1.5,1.5,0,0,0,2.6,0,12.7,12.7,0,0,0,.3-3.58v-4.31h8.91V157a26.36,26.36,0,0,1-.75,7.54,7.68,7.68,0,0,1-3.31,3.9,11.41,11.41,0,0,1-6.33,1.67,13.22,13.22,0,0,1-6.45-1.41,6.93,6.93,0,0,1-3.36-3.93,26.07,26.07,0,0,1-.82-7.53v-10a46.24,46.24,0,0,1,.25-5.54,7.69,7.69,0,0,1,1.52-3.56,8.45,8.45,0,0,1,3.48-2.7,14.28,14.28,0,0,1,11.61.54,7.27,7.27,0,0,1,3.36,3.78,22.71,22.71,0,0,1,.8,7.06Zm-204.84-4.54h-8.26V143a5,5,0,0,0-.32-2.26,1.15,1.15,0,0,0-1.05-.49,1.35,1.35,0,0,0-1.21.66,3.8,3.8,0,0,0-.41,2,5.6,5.6,0,0,0,.47,2.57,6.92,6.92,0,0,0,2.52,2.09q5.91,3.54,7.45,5.8t1.54,7.28a12.85,12.85,0,0,1-.86,5.4,6.56,6.56,0,0,1-3.3,2.89,12.88,12.88,0,0,1-5.69,1.18,12.74,12.74,0,0,1-6.09-1.36,6.67,6.67,0,0,1-3.31-3.43,18.09,18.09,0,0,1-.77-5.94v-2.25h8.26v4.16a5.58,5.58,0,0,0,.34,2.48,1.36,1.36,0,0,0,1.24.54,1.44,1.44,0,0,0,1.32-.7,4,4,0,0,0,.43-2.06c0-2-.28-3.33-.82-3.94a27.52,27.52,0,0,0-4.16-3.12,40.67,40.67,0,0,1-4.39-3.19,7.53,7.53,0,0,1-1.78-2.75,12.08,12.08,0,0,1-.7-4.47,12.43,12.43,0,0,1,1-5.75,6.76,6.76,0,0,1,3.24-2.84,12.91,12.91,0,0,1,5.4-1,14,14,0,0,1,5.89,1.12,6.13,6.13,0,0,1,3.22,2.82,14.86,14.86,0,0,1,.8,5.78Z"/></g></g></svg>