<svg xmlns="http://www.w3.org/2000/svg" viewBox="0 0 307.02 176.91"><defs><style>.cls-1{fill:#fff;}.cls-2{fill:#25d1ab;}</style></defs><g id="Capa_2" data-name="Capa 2"><g id="Capa_1-2" data-name="Capa 1"><path class="cls-1" d="M69,63.28a16.45,16.45,0,0,1-1,6,13.29,13.29,0,0,1-2.7,4.34,14.14,14.14,0,0,1-3.93,2.94,23.75,23.75,0,0,1-4.65,1.78,30.2,30.2,0,0,1-4.92.89q-2.49.24-4.68.24H41.89l3,.82a29.08,29.08,0,0,0,3.62.68c1.39.18,3.07.33,5,.44s4.37.17,7.24.17H69V95.88a127.76,127.76,0,0,1-13.74-.69,48.14,48.14,0,0,1-11.41-2.52,27.32,27.32,0,0,1-8.68-5,21,21,0,0,1-5.6-8.16H26.44v16.4H10.79V47.08H49.13a33.84,33.84,0,0,1,6.8.72,19.34,19.34,0,0,1,6.43,2.53,14.46,14.46,0,0,1,4.78,5A15.43,15.43,0,0,1,69,63.28ZM44.9,69.22q7.71,0,7.72-4.58a4.24,4.24,0,0,0-1.37-3.45,7,7,0,0,0-4.44-1.12H26.44v9.15Z"/><path class="cls-1" d="M75.85,85h9.64V58H75.85V47.08h34.93V58h-9.64V85h9.64V95.88H75.85Z"/><path class="cls-1" d="M179.8,71.48a31.09,31.09,0,0,1-1.3,9.6,20.83,20.83,0,0,1-3.45,6.7,17.83,17.83,0,0,1-4.85,4.3,23.86,23.86,0,0,1-5.57,2.46,28.22,28.22,0,0,1-5.64,1.1c-1.84.16-3.5.24-5,.24H117.61V47.08H154c1.45,0,3.11.08,5,.24a28.18,28.18,0,0,1,5.64,1.09,24.72,24.72,0,0,1,5.57,2.46,17.87,17.87,0,0,1,4.85,4.31,20.83,20.83,0,0,1,3.45,6.7A31.09,31.09,0,0,1,179.8,71.48Zm-24.94,10.8a9.54,9.54,0,0,0,4.23-.82,6.58,6.58,0,0,0,2.6-2.26A9.1,9.1,0,0,0,163,75.78a23.09,23.09,0,0,0,.38-4.3,22.61,22.61,0,0,0-.38-4.27,9.15,9.15,0,0,0-1.33-3.39,6.64,6.64,0,0,0-2.6-2.25,9.4,9.4,0,0,0-4.23-.82H133.33V82.28Z"/><path class="cls-1" d="M224,47.08a25.66,25.66,0,0,1,8.51,1.4,19.44,19.44,0,0,1,7,4.31,20,20,0,0,1,4.78,7.34A28.85,28.85,0,0,1,246,70.66c0,.77,0,1.47,0,2.08s0,1.18,0,1.68-.09,1.11-.14,1.57H200.71a8.48,8.48,0,0,0,2.46,4.58q1.85,1.71,5.68,1.71h15.58a9.67,9.67,0,0,0,2.32-.24,3.42,3.42,0,0,0,1.57-.82,4.38,4.38,0,0,0,1-1.68h16.47a16.52,16.52,0,0,1-2.12,6.15A17.49,17.49,0,0,1,240,90.1,19.43,19.43,0,0,1,235.26,93,31.32,31.32,0,0,1,230,94.82a32.62,32.62,0,0,1-5.16.85c-1.66.14-3.17.21-4.54.21H209.67c-1.46,0-3.11-.08-5-.24a28.49,28.49,0,0,1-5.64-1.1,23.86,23.86,0,0,1-5.57-2.46,18,18,0,0,1-4.85-4.3,21.24,21.24,0,0,1-3.45-6.7,31.09,31.09,0,0,1-1.3-9.6,31.09,31.09,0,0,1,1.3-9.6,21.24,21.24,0,0,1,3.45-6.7,18,18,0,0,1,4.85-4.31,24.72,24.72,0,0,1,5.57-2.46,28.46,28.46,0,0,1,5.64-1.09c1.85-.16,3.5-.24,5-.24Zm-15.1,13.67a8.39,8.39,0,0,0-5.44,1.5,8.16,8.16,0,0,0-2.56,4.1H230c-.13-2.14-.92-3.61-2.35-4.4a11.89,11.89,0,0,0-5.78-1.2Z"/><path class="cls-1" d="M58.67,123.52h21v7.54H49.91V103.73h8.76Z"/><path class="cls-1" d="M103.83,103.73c.81,0,1.74,0,2.77.14a15.85,15.85,0,0,1,3.16.61,14.23,14.23,0,0,1,3.14,1.38,9.63,9.63,0,0,1,2.71,2.41,12.24,12.24,0,0,1,1.92,3.75,17.63,17.63,0,0,1,.72,5.37v13.67h-8.76v-6H92.23v6H83.47V117.39A17.3,17.3,0,0,1,84.2,112a12,12,0,0,1,1.91-3.75,9.66,9.66,0,0,1,2.72-2.41A14.3,14.3,0,0,1,92,104.48a15.31,15.31,0,0,1,3.13-.61c1-.09,2-.14,2.78-.14Zm5.66,14.2V117a13.63,13.63,0,0,0-.21-2.45,5.93,5.93,0,0,0-.75-2,3.79,3.79,0,0,0-1.47-1.39,4.84,4.84,0,0,0-2.39-.52H97a4.8,4.8,0,0,0-2.38.52,4,4,0,0,0-1.45,1.39,5.93,5.93,0,0,0-.75,2,13.63,13.63,0,0,0-.21,2.45v.92Z"/><path class="cls-1" d="M119.79,103.73H147.3v7.66h-9.45v19.67H129V111.39h-9.25Z"/><path class="cls-1" d="M150.36,125h5.39V109.86h-5.39v-6.13h19.55v6.13h-5.39V125h5.39v6.09H150.36Z"/><path class="cls-1" d="M182.54,131.06h-8.8V103.73h8.8v3a12.06,12.06,0,0,1,2.66-1.71,16.31,16.31,0,0,1,2.91-1,23.46,23.46,0,0,1,2.89-.52,24.76,24.76,0,0,1,2.6-.15,19.5,19.5,0,0,1,3.2.29,17.16,17.16,0,0,1,3.36.93,15.78,15.78,0,0,1,3.18,1.71A11.46,11.46,0,0,1,206,108.9a12.4,12.4,0,0,1,1.85,3.67,15.49,15.49,0,0,1,.69,4.82v13.67h-9.18V119.69A16.81,16.81,0,0,0,199,116a8.23,8.23,0,0,0-1.23-2.87,5.65,5.65,0,0,0-2.22-1.88,7.66,7.66,0,0,0-3.33-.67h-.53a10.1,10.1,0,0,0-4.88,1,7.51,7.51,0,0,0-2.76,2.43,8.12,8.12,0,0,0-1.22,3.08,17.53,17.53,0,0,0-.29,2.94Z"/><path class="cls-1" d="M231.6,103.73c.82,0,1.74,0,2.77.14a15.72,15.72,0,0,1,3.16.61,14.23,14.23,0,0,1,3.14,1.38,9.8,9.8,0,0,1,2.72,2.41A12.23,12.23,0,0,1,245.3,112a20.15,20.15,0,0,1,0,10.75,12.23,12.23,0,0,1-1.91,3.75,9.8,9.8,0,0,1-2.72,2.41,14.23,14.23,0,0,1-3.14,1.38,15.72,15.72,0,0,1-3.16.61c-1,.09-2,.14-2.77.14h-5.93c-.82,0-1.74-.05-2.78-.14a15.76,15.76,0,0,1-3.15-.61,14.23,14.23,0,0,1-3.14-1.38,9.66,9.66,0,0,1-2.72-2.41,12,12,0,0,1-1.91-3.75A20.15,20.15,0,0,1,212,112a12,12,0,0,1,1.91-3.75,9.66,9.66,0,0,1,2.72-2.41,14.23,14.23,0,0,1,3.14-1.38,15.76,15.76,0,0,1,3.15-.61c1-.09,2-.14,2.78-.14Zm.46,19.71a5.36,5.36,0,0,0,2.39-.46,3.64,3.64,0,0,0,1.47-1.26,5.14,5.14,0,0,0,.75-1.92,12.87,12.87,0,0,0,.21-2.41,12.73,12.73,0,0,0-.21-2.39,5.06,5.06,0,0,0-.75-1.89,3.5,3.5,0,0,0-1.47-1.26,5.36,5.36,0,0,0-2.39-.46h-6.89a5.24,5.24,0,0,0-2.37.46,3.66,3.66,0,0,0-1.46,1.26,5.23,5.23,0,0,0-.74,1.89,12.73,12.73,0,0,0-.21,2.39,12.87,12.87,0,0,0,.21,2.41,5.31,5.31,0,0,0,.74,1.92A3.82,3.82,0,0,0,222.8,123a5.24,5.24,0,0,0,2.37.46Z"/><path class="cls-2" d="M218.56,0H123.68V13.74H109.94V27.49H219.33a61,61,0,0,1,61,61h0a61,61,0,0,1-61,61H123.68v13.74H109.94v13.74H218.56A88.46,88.46,0,0,0,307,88.46h0A88.46,88.46,0,0,0,218.56,0Z"/><rect class="cls-2" x="41.23" y="149.43" width="13.74" height="13.74"/><rect class="cls-2" x="13.74" y="149.43" width="13.74" height="13.74"/><rect class="cls-2" x="96.2" y="149.43" width="13.74" height="13.74"/><rect class="cls-2" x="68.71" y="149.43" width="13.74" height="13.74"/><rect class="cls-2" x="82.46" y="163.17" width="13.74" height="13.74"/><rect class="cls-2" x="54.97" y="163.17" width="13.74" height="13.74"/><rect class="cls-2" x="27.49" y="163.17" width="13.74" height="13.74"/><rect class="cls-2" y="163.17" width="13.74" height="13.74"/><rect class="cls-2" x="82.46" y="13.74" width="13.74" height="13.74"/><rect class="cls-2" x="41.23" width="13.74" height="13.74"/><rect class="cls-2" x="13.74" width="13.74" height="13.74"/><rect class="cls-2" x="96.2" width="13.74" height="13.74"/><rect class="cls-2" x="68.71" width="13.74" height="13.74"/><rect class="cls-2" x="27.49" y="13.74" width="13.74" height="13.74"/><rect class="cls-2" y="13.74" width="13.74" height="13.74"/><rect class="cls-2" x="54.97" y="13.74" width="13.74" height="13.74"/></g></g></svg>